<svg width="500" height="500" viewBox="0 0 500 500" fill="none" xmlns="http://www.w3.org/2000/svg">
<rect width="500" height="500" rx="100" fill="#1C1C1C"/>
<path d="M250 107V393" stroke="url(#paint0_linear_8_140)" stroke-width="15" stroke-linecap="round" stroke-linejoin="round"/>
<path d="M315 159H217.5C205.433 159 193.86 163.794 185.327 172.327C176.794 180.86 172 192.433 172 204.5C172 216.567 176.794 228.14 185.327 236.673C193.86 245.206 205.433 250 217.5 250H282.5C294.567 250 306.14 254.794 314.673 263.327C323.206 271.86 328 283.433 328 295.5C328 307.567 323.206 319.14 314.673 327.673C306.14 336.206 294.567 341 282.5 341H172" stroke="white" stroke-width="20" stroke-linecap="round" stroke-linejoin="round"/>
<defs>
<linearGradient id="paint0_linear_8_140" x1="250.5" y1="107" x2="250.5" y2="393" gradientUnits="userSpaceOnUse">
<stop stop-color="#2E2E5C"/>
<stop offset="0.270833" stop-color="#E80720"/>
<stop offset="0.572917" stop-color="#ED992D"/>
<stop offset="1" stop-color="#F4C893"/>
</linearGradient>
</defs>
</svg>
